<svg xmlns="http://www.w3.org/2000/svg" viewBox="244 268 1287 343" role="img" aria-label="DigitalBurj Logistics LLC"><path fill="#E8472B" fill-rule="evenodd" d="M323.0,287.75 L323.00,287.75 Q323,287 324.30,287.00 L454.50,287.00 Q586,287 590.00,289.00 L590.00,289.00 Q594,291 603.50,301.00 L612.10,310.06 Q613,311 613.00,311.50 L613.00,312.50 Q613,313 613.95,313.89 L630.05,329.11 Q631,330 631.00,330.50 L631.00,331.50 Q631,332 631.75,332.25 L633.25,332.75 Q634,333 634.00,333.50 L634.00,334.50 Q634,335 634.95,335.89 L642.50,343.00 Q651,351 652.00,354.50 L652.64,356.75 Q653,358 652.25,358.75 L650.75,360.25 Q650,361 648.70,361.00 L520.00,361.00 Q390,361 387.50,360.00 L387.50,360.00 Q385,359 380.50,354.50 L376.92,350.92 Q376,350 376.00,349.50 L376.00,348.50 Q376,348 375.11,347.05 L360.50,331.50 Q345,315 339.00,307.00 L339.00,307.00 Q333,299 328.00,294.50 L323.97,290.87 Q323,290 323.00,289.25 Z M376.4110960958219,395.23328828746565 L376.41,395.23 Q376,394 377.30,394.00 L483.00,394.00 Q590,394 593.50,395.50 L593.50,395.50 Q597,397 605.00,409.00 L605.00,409.00 Q613,421 618.50,427.50 L623.16,433.01 Q624,434 624.00,435.25 L624.00,437.75 Q624,439 623.07,439.91 L603.00,459.50 Q582,480 579.50,481.00 L579.50,481.00 Q577,482 472.00,482.00 L368.30,482.00 Q367,482 367.00,481.50 L367.00,480.50 Q367,480 367.91,479.07 L406.09,439.93 Q407,439 406.75,437.75 L406.50,436.50 Q406,434 397.50,424.00 L397.50,424.00 Q389,414 386.00,409.00 L386.00,409.00 Q383,404 380.50,402.00 L380.50,402.00 Q378,400 377.00,397.00 Z M346.8,516.5 L342.00,518.50 Q348,516 491.00,516.00 L632.70,516.00 Q634,516 634.41,517.23 L635.59,520.77 Q636,522 635.08,522.92 L602.00,556.00 Q568,590 564.50,591.50 L564.50,591.50 Q561,593 412.00,593.00 L264.30,593.00 Q263,593 263.00,592.50 L263.00,591.50 Q263,591 263.92,590.08 L280.08,573.92 Q281,573 281.50,573.00 L282.50,573.00 Q283,573 283.93,572.09 L309.50,547.00 Q336,521 342.00,518.50 Z"/><path fill="#0A2A2B" fill-rule="evenodd" d="M561.7044905142817,287.10795912380985 L557.00,287.50 Q563,287 572.50,287.00 L572.50,287.00 Q582,287 588.00,289.50 L588.00,289.50 Q594,292 611.50,310.50 L628.11,328.06 Q629,329 629.00,329.75 L629.00,331.25 Q629,332 629.75,332.00 L631.25,332.00 Q632,332 632.89,332.95 L639.50,340.00 Q647,348 647.50,350.50 L647.75,351.75 Q648,353 647.25,353.00 L645.75,353.00 Q645,353 645.00,353.75 L645.00,355.25 Q645,356 646.25,356.00 L648.75,356.00 Q650,356 650.50,356.50 L651.50,357.50 Q652,358 651.25,358.75 L649.75,360.25 Q649,361 647.72,360.77 L639.28,359.23 Q638,359 637.00,359.50 L636.00,360.00 Q634,361 596.50,361.00 L560.30,361.00 Q559,361 559.72,359.92 L563.00,355.00 Q567,349 573.50,343.00 L579.04,337.88 Q580,337 579.54,335.78 L578.50,333.00 Q577,329 562.00,311.00 L547.83,294.00 Q547,293 547.00,292.25 L547.00,290.75 Q547,290 548.00,289.50 L549.00,289.00 Q551,288 557.00,287.50 Z M545.6542923024365,396.2531904036679 L545.65,396.25 Q546,395 547.30,395.00 L569.00,395.00 Q592,395 594.00,396.00 L594.00,396.00 Q596,397 610.00,416.00 L623.23,433.95 Q624,435 624.00,435.75 L624.00,437.25 Q624,438 623.08,438.92 L603.92,458.08 Q603,459 602.50,459.00 L601.50,459.00 Q601,459 600.22,460.04 L595.78,465.96 Q595,467 594.50,467.00 L593.50,467.00 Q593,467 592.12,467.96 L587.50,473.00 Q582,479 580.00,480.00 L580.00,480.00 Q578,481 551.00,481.50 L525.30,481.98 Q524,482 524.26,480.73 L527.00,467.50 Q530,453 538.00,424.00 Z M623.7000784858274,516.0142848518041 L579.50,516.50 Q625,516 629.00,516.00 L631.70,516.00 Q633,516 633.50,516.50 L634.50,517.50 Q635,518 634.68,519.26 L634.00,522.00 Q633,526 600.00,558.00 L600.00,558.00 Q567,590 564.50,591.00 L564.50,591.00 Q562,592 554.00,592.50 L554.00,592.50 Q546,593 526.00,592.50 L507.30,592.03 Q506,592 506.92,591.08 L550.08,547.92 Q551,547 550.59,545.77 L549.50,542.50 Q548,538 542.00,530.50 L542.00,530.50 Q536,523 535.00,520.00 L534.41,518.23 Q534,517 535.30,516.99 Z"/><path fill="#D13B20" fill-rule="evenodd" d="M588.0,286.5 L588.00,286.50 Q588,286 589.30,286.00 L624.50,286.00 Q661,286 665.50,287.50 L668.77,288.59 Q670,289 670.76,290.06 L710.24,344.94 Q711,346 711.00,347.30 L711.00,354.70 Q711,356 709.94,356.76 L705.06,360.24 Q704,361 702.70,360.97 L667.30,360.03 Q666,360 665.10,359.07 L634.50,327.50 Q603,295 598.50,292.00 L598.50,292.00 Q594,289 591.00,288.50 L589.28,288.21 Q588,288 588.00,287.50 Z"/><path fill="#FFFFFF" fill-rule="evenodd" d="M1159.7252451216018,366.25495097567966 L1146.00,369.00 Q1161,366 1168.00,366.50 L1168.00,366.50 Q1175,367 1183.00,369.00 L1183.00,369.00 Q1191,371 1197.50,374.50 L1197.50,374.50 Q1204,378 1210.00,384.00 L1210.00,384.00 Q1216,390 1219.00,395.50 L1219.00,395.50 Q1222,401 1224.00,410.00 L1224.00,410.00 Q1226,419 1225.50,427.50 L1225.50,427.50 Q1225,436 1223.00,443.50 L1223.00,443.50 Q1221,451 1215.00,461.50 L1215.00,461.50 Q1209,472 1202.00,479.00 L1202.00,479.00 Q1195,486 1186.00,491.50 L1186.00,491.50 Q1177,497 1164.50,500.50 L1164.50,500.50 Q1152,504 1140.00,504.00 L1140.00,504.00 Q1128,504 1119.00,501.50 L1119.00,501.50 Q1110,499 1104.00,495.50 L1104.00,495.50 Q1098,492 1092.50,486.50 L1092.50,486.50 Q1087,481 1083.50,474.00 L1083.50,474.00 Q1080,467 1079.00,463.00 L1079.00,463.00 Q1078,459 1078.00,447.50 L1078.00,447.50 Q1078,436 1080.00,428.00 L1080.00,428.00 Q1082,420 1086.50,411.50 L1086.50,411.50 Q1091,403 1100.00,393.50 L1100.00,393.50 Q1109,384 1120.00,378.00 L1120.00,378.00 Q1131,372 1146.00,369.00 Z M744.6780234827097,370.2594963764591 L744.68,370.26 Q745,369 746.30,369.00 L855.70,369.00 Q857,369 856.84,370.29 L856.50,373.00 Q856,377 854.00,381.50 L854.00,381.50 Q852,386 848.00,390.00 L848.00,390.00 Q844,394 840.50,396.00 L840.50,396.00 Q837,398 805.00,398.00 L774.30,398.00 Q773,398 772.67,399.26 L767.33,419.74 Q767,421 768.30,421.00 L828.70,421.00 Q830,421 829.86,422.29 L829.50,425.50 Q829,430 826.00,434.00 L826.00,434.00 Q823,438 818.50,441.00 L818.50,441.00 Q814,444 812.00,446.50 L810.81,447.98 Q810,449 808.70,449.00 L761.30,449.00 Q760,449 759.56,450.22 L758.00,454.50 Q756,460 755.00,464.00 L755.00,464.00 Q754,468 754.00,470.00 L754.00,471.00 Q754,472 754.50,472.25 L755.00,472.50 Q756,473 793.00,473.00 L828.70,473.00 Q830,473 829.68,474.26 L823.32,499.74 Q823,501 821.70,501.01 L712.30,501.99 Q711,502 711.32,500.74 Z M882.25,369.5 L881.50,370.00 Q883,369 899.50,369.00 L914.70,369.00 Q916,369 915.66,370.26 L904.50,412.00 Q893,455 893.00,460.00 L893.00,463.70 Q893,465 893.83,466.00 L895.50,468.00 Q898,471 901.00,472.00 L901.00,472.00 Q904,473 928.00,473.00 L950.70,473.00 Q952,473 951.61,474.24 L949.50,481.00 Q947,489 944.50,492.00 L944.50,492.00 Q942,495 937.50,498.00 L937.50,498.00 Q933,501 899.00,501.50 L899.00,501.50 Q865,502 861.50,501.00 L861.50,501.00 Q858,500 855.00,497.00 L852.92,494.92 Q852,494 851.91,492.70 L851.50,487.00 Q851,480 864.50,428.00 L864.50,428.00 Q878,376 879.00,373.50 L879.00,373.50 Q880,371 881.50,370.00 Z M950.2769514482632,370.2701566420347 L950.28,370.27 Q950,369 951.30,369.04 L985.70,369.96 Q987,370 987.25,371.28 L1002.75,449.72 Q1003,451 1003.75,450.75 L1005.25,450.25 Q1006,450 1006.72,448.92 L1030.50,413.00 Q1055,376 1062.50,372.50 L1062.50,372.50 Q1070,369 1083.00,369.00 L1094.70,369.00 Q1096,369 1096.00,369.75 L1096.00,370.50 Q1096,372 1052.00,436.00 L1052.00,436.00 Q1008,500 1006.00,501.00 L1006.00,501.00 Q1004,502 991.50,502.00 L980.30,502.00 Q979,502 978.72,500.73 Z M1257.6757354931567,370.2589092618619 L1257.68,370.26 Q1258,369 1259.30,369.00 L1297.50,369.00 Q1337,369 1344.00,370.50 L1344.00,370.50 Q1351,372 1356.50,375.00 L1356.50,375.00 Q1362,378 1364.50,380.50 L1364.50,380.50 Q1367,383 1369.50,387.50 L1369.50,387.50 Q1372,392 1373.00,396.50 L1373.00,396.50 Q1374,401 1373.50,408.00 L1373.50,408.00 Q1373,415 1371.00,421.00 L1371.00,421.00 Q1369,427 1365.50,432.00 L1365.50,432.00 Q1362,437 1357.00,441.00 L1357.00,441.00 Q1352,445 1347.00,447.50 L1347.00,447.50 Q1342,450 1335.00,451.50 L1329.27,452.73 Q1328,453 1328.63,454.14 L1333.50,463.00 Q1339,473 1345.00,481.50 L1345.00,481.50 Q1351,490 1353.50,496.00 L1355.50,500.80 Q1356,502 1354.70,502.00 L1317.30,502.00 Q1316,502 1315.36,500.87 L1278.64,436.13 Q1278,435 1277.50,435.00 L1276.50,435.00 Q1276,435 1275.59,436.23 L1275.00,438.00 Q1274,441 1266.50,471.00 L1259.32,499.74 Q1259,501 1257.70,501.00 L1225.30,501.00 Q1224,501 1224.32,499.74 Z M1449.2748131520377,370.07893652989526 L1449.27,370.08 Q1450,369 1451.30,369.00 L1481.70,369.00 Q1483,369 1483.29,370.27 L1512.71,500.73 Q1513,502 1511.70,502.00 L1478.30,502.00 Q1477,502 1476.75,500.72 L1472.25,477.28 Q1472,476 1470.70,476.00 L1415.30,476.00 Q1414,476 1413.29,477.09 L1397.71,500.91 Q1397,502 1395.70,502.00 L1361.30,502.00 Q1360,502 1360.68,500.89 L1368.00,489.00 Q1376,476 1377.50,475.00 L1377.50,475.00 Q1379,474 1385.00,464.00 L1385.00,464.00 Q1391,454 1392.50,453.00 L1392.50,453.00 Q1394,452 1400.00,442.00 L1400.00,442.00 Q1406,432 1407.50,431.00 L1407.50,431.00 Q1409,430 1429.50,399.50 Z M1157.2885962708874,397.1718128361183 L1163.50,398.00 Q1156,397 1149.00,398.50 L1149.00,398.50 Q1142,400 1135.50,404.00 L1135.50,404.00 Q1129,408 1124.50,413.50 L1124.50,413.50 Q1120,419 1117.50,424.50 L1117.50,424.50 Q1115,430 1114.50,440.50 L1114.50,440.50 Q1114,451 1116.00,455.50 L1116.00,455.50 Q1118,460 1121.00,463.50 L1121.00,463.50 Q1124,467 1130.50,470.00 L1130.50,470.00 Q1137,473 1145.50,473.00 L1145.50,473.00 Q1154,473 1160.50,470.50 L1160.50,470.50 Q1167,468 1174.00,461.50 L1174.00,461.50 Q1181,455 1184.50,448.00 L1184.50,448.00 Q1188,441 1189.00,433.50 L1189.00,433.50 Q1190,426 1187.50,418.00 L1187.50,418.00 Q1185,410 1181.00,406.00 L1181.00,406.00 Q1177,402 1174.00,400.50 L1174.00,400.50 Q1171,399 1163.50,398.00 Z M1288.299648601156,398.03022438607337 L1288.30,398.03 Q1287,398 1286.42,399.16 L1285.50,401.00 Q1284,404 1281.50,415.00 L1279.29,424.73 Q1279,426 1280.30,426.00 L1302.00,426.00 Q1325,426 1328.00,424.50 L1328.00,424.50 Q1331,423 1333.50,420.50 L1333.50,420.50 Q1336,418 1337.00,415.50 L1337.00,415.50 Q1338,413 1337.00,408.00 L1336.25,404.27 Q1336,403 1334.92,402.28 L1333.00,401.00 Q1330,399 1308.50,398.50 Z M1457.5,411.5 L1457.50,411.50 Q1457,411 1456.29,412.09 L1432.71,447.91 Q1432,449 1433.30,449.00 L1464.70,449.00 Q1466,449 1465.75,447.72 L1462.50,431.00 Q1459,413 1458.00,412.00 Z M727.7309568217609,529.2820095951643 L724.50,530.00 Q729,529 735.50,529.50 L735.50,529.50 Q742,530 745.00,531.50 L745.00,531.50 Q748,533 750.00,535.50 L750.00,535.50 Q752,538 752.50,540.50 L752.75,541.75 Q753,543 751.70,543.00 L744.30,543.00 Q743,543 743.00,542.50 L743.00,541.50 Q743,541 741.92,540.28 L740.00,539.00 Q737,537 732.00,537.00 L728.30,537.00 Q727,537 725.98,537.81 L723.02,540.19 Q722,541 722.00,542.00 L722.00,544.00 Q722,545 722.50,545.50 L723.50,546.50 Q724,547 725.28,547.20 L733.50,548.50 Q743,550 746.00,551.00 L746.00,551.00 Q749,552 751.00,554.00 L752.08,555.08 Q753,556 753.12,557.29 L753.50,561.50 Q754,567 753.00,569.00 L753.00,569.00 Q752,571 749.00,573.00 L749.00,573.00 Q746,575 742.00,576.00 L742.00,576.00 Q738,577 730.50,576.50 L730.50,576.50 Q723,576 719.50,574.50 L719.50,574.50 Q716,573 714.00,570.50 L712.81,569.02 Q712,568 712.00,566.75 L712.00,564.25 Q712,563 713.30,563.00 L719.70,563.00 Q721,563 721.25,563.75 L721.75,565.25 Q722,566 723.11,566.67 L724.50,567.50 Q727,569 733.50,569.00 L738.70,569.00 Q740,569 741.00,568.25 L743.00,566.75 Q744,566 744.00,564.75 L744.00,562.25 Q744,561 743.50,560.50 L743.00,560.00 Q742,559 730.00,556.50 L730.00,556.50 Q718,554 715.50,551.50 L713.92,549.92 Q713,549 712.84,547.71 L712.50,545.00 Q712,541 713.00,538.50 L713.00,538.50 Q714,536 717.00,533.50 L717.00,533.50 Q720,531 724.50,530.00 Z M1203.7667117125343,529.4110960958219 L1199.00,531.00 Q1205,529 1213.00,530.00 L1213.00,530.00 Q1221,531 1226.00,535.50 L1230.03,539.13 Q1231,540 1231.00,540.75 L1231.00,542.25 Q1231,543 1229.70,543.00 L1222.30,543.00 Q1221,543 1220.08,542.08 L1216.92,538.92 Q1216,538 1214.71,537.86 L1211.50,537.50 Q1207,537 1203.50,538.00 L1203.50,538.00 Q1200,539 1197.00,542.50 L1194.85,545.01 Q1194,546 1194.00,547.30 L1194.00,558.70 Q1194,560 1194.86,560.98 L1197.50,564.00 Q1201,568 1202.50,568.50 L1202.50,568.50 Q1204,569 1209.50,569.00 L1213.70,569.00 Q1215,569 1215.98,568.14 L1222.02,562.86 Q1223,562 1223.00,561.00 L1223.00,559.00 Q1223,558 1221.70,558.00 L1211.30,558.00 Q1210,558 1210.00,556.70 L1210.00,552.30 Q1210,551 1211.30,551.00 L1231.70,551.00 Q1233,551 1233.00,552.30 L1233.00,556.00 Q1233,561 1232.00,564.00 L1232.00,564.00 Q1231,567 1228.00,570.00 L1228.00,570.00 Q1225,573 1219.50,575.00 L1219.50,575.00 Q1214,577 1209.00,577.00 L1209.00,577.00 Q1204,577 1198.50,575.00 L1198.50,575.00 Q1193,573 1189.50,569.50 L1189.50,569.50 Q1186,566 1184.50,561.50 L1184.50,561.50 Q1183,557 1183.50,551.00 L1183.50,551.00 Q1184,545 1185.50,542.00 L1185.50,542.00 Q1187,539 1190.00,536.00 L1190.00,536.00 Q1193,533 1199.00,531.00 Z M1449.7574872886614,529.3823116034888 L1444.50,531.00 Q1451,529 1458.50,530.00 L1458.50,530.00 Q1466,531 1471.00,535.50 L1475.03,539.13 Q1476,540 1476.00,541.25 L1476.00,543.75 Q1476,545 1474.70,545.00 L1468.30,545.00 Q1467,545 1466.28,543.92 L1463.72,540.08 Q1463,539 1461.72,538.77 L1457.50,538.00 Q1452,537 1448.50,538.00 L1448.50,538.00 Q1445,539 1442.00,542.50 L1439.85,545.01 Q1439,546 1439.00,547.30 L1439.00,553.00 Q1439,560 1440.00,562.00 L1440.00,562.00 Q1441,564 1444.00,566.00 L1444.00,566.00 Q1447,568 1452.50,568.50 L1452.50,568.50 Q1458,569 1460.50,568.00 L1460.50,568.00 Q1463,567 1465.00,564.50 L1466.19,563.02 Q1467,562 1468.30,562.00 L1474.70,562.00 Q1476,562 1475.79,563.28 L1475.21,566.72 Q1475,568 1474.08,568.92 L1472.50,570.50 Q1470,573 1464.50,575.00 L1464.50,575.00 Q1459,577 1454.00,577.00 L1454.00,577.00 Q1449,577 1444.00,575.50 L1444.00,575.50 Q1439,574 1435.50,571.00 L1435.50,571.00 Q1432,568 1430.00,563.50 L1430.00,563.50 Q1428,559 1428.00,553.50 L1428.00,553.50 Q1428,548 1429.50,544.00 L1429.50,544.00 Q1431,540 1434.50,536.50 L1434.50,536.50 Q1438,533 1444.50,531.00 Z M786.0,531.3 L786.00,531.30 Q786,530 787.30,530.00 L793.70,530.00 Q795,530 795.07,531.30 L795.93,547.70 Q796,549 797.30,549.00 L819.70,549.00 Q821,549 821.00,547.70 L821.00,532.30 Q821,531 822.29,530.87 L829.71,530.13 Q831,530 831.00,531.30 L831.00,574.70 Q831,576 829.70,576.00 L822.30,576.00 Q821,576 821.00,574.70 L821.00,558.30 Q821,557 819.70,557.00 L797.30,557.00 Q796,557 795.93,558.30 L795.07,574.70 Q795,576 793.70,576.00 L787.30,576.00 Q786,576 786.00,574.70 Z M867.0,531.3 L867.00,531.30 Q867,530 868.30,530.00 L874.70,530.00 Q876,530 876.00,531.30 L876.00,574.70 Q876,576 874.70,576.00 L868.30,576.00 Q867,576 867.00,574.70 Z M912.0,531.3 L912.00,531.30 Q912,530 913.30,530.00 L926.50,530.00 Q941,530 945.50,531.50 L945.50,531.50 Q950,533 952.00,535.00 L952.00,535.00 Q954,537 955.00,540.00 L955.00,540.00 Q956,543 954.50,549.00 L953.32,553.74 Q953,555 951.90,555.69 L949.00,557.50 Q945,560 933.50,560.00 L923.30,560.00 Q922,560 922.00,561.30 L922.00,574.70 Q922,576 920.70,576.00 L913.30,576.00 Q912,576 912.00,574.70 Z M987.0,531.3 L987.00,531.30 Q987,530 988.30,530.00 L1001.50,530.00 Q1016,530 1019.50,531.00 L1019.50,531.00 Q1023,532 1025.00,533.50 L1025.00,533.50 Q1027,535 1028.50,538.50 L1028.50,538.50 Q1030,542 1029.00,548.00 L1028.21,552.72 Q1028,554 1026.92,554.72 L1023.50,557.00 Q1019,560 1008.00,560.00 L998.30,560.00 Q997,560 996.92,561.30 L996.08,574.70 Q996,576 994.70,576.00 L988.30,576.00 Q987,576 987.00,574.70 Z M1061.0,531.3 L1061.00,531.30 Q1061,530 1062.30,530.00 L1068.70,530.00 Q1070,530 1070.00,531.30 L1070.00,574.70 Q1070,576 1068.70,576.00 L1062.30,576.00 Q1061,576 1061.00,574.70 Z M1106.0,531.3 L1106.00,531.30 Q1106,530 1107.30,530.00 L1115.70,530.00 Q1117,530 1117.76,531.06 L1139.24,560.94 Q1140,562 1140.50,562.00 L1141.50,562.00 Q1142,562 1142.00,560.70 L1142.00,531.30 Q1142,530 1143.30,530.00 L1149.70,530.00 Q1151,530 1151.00,531.30 L1151.00,574.70 Q1151,576 1149.70,576.00 L1142.30,576.00 Q1141,576 1140.22,574.96 L1117.78,545.04 Q1117,544 1116.50,544.00 L1115.50,544.00 Q1115,544 1115.00,545.30 L1115.00,574.70 Q1115,576 1113.70,576.00 L1107.30,576.00 Q1106,576 1106.00,574.70 Z M1306.0,531.3 L1306.00,531.30 Q1306,530 1307.30,530.00 L1313.70,530.00 Q1315,530 1315.00,531.30 L1315.00,565.70 Q1315,567 1316.30,567.05 L1338.70,567.95 Q1340,568 1340.00,569.30 L1340.00,574.70 Q1340,576 1338.70,576.00 L1310.30,576.00 Q1309,576 1308.25,575.25 L1306.75,573.75 Q1306,573 1306.00,571.70 Z M1369.0,531.3 L1369.00,531.30 Q1369,530 1370.30,530.00 L1376.70,530.00 Q1378,530 1378.00,531.30 L1378.00,566.70 Q1378,568 1379.30,568.00 L1401.70,568.00 Q1403,568 1403.00,569.30 L1403.00,574.70 Q1403,576 1401.70,576.00 L1387.50,576.00 Q1372,576 1370.50,575.00 L1369.75,574.50 Q1369,574 1369.00,572.70 Z M924.3,538.0 L924.30,538.00 Q923,538 922.91,539.30 L922.09,551.70 Q922,553 923.30,553.00 L938.70,553.00 Q940,553 941.00,552.17 L945.00,548.83 Q946,548 946.00,546.75 L946.00,544.25 Q946,543 945.08,542.08 L941.92,538.92 Q941,538 939.70,538.00 Z M999.2982031781322,538.0683264830595 L1007.50,538.50 Q998,538 997.00,538.50 L996.50,538.75 Q996,539 996.09,540.30 L996.91,551.70 Q997,553 998.30,553.00 L1005.50,553.00 Q1014,553 1016.50,551.50 L1017.89,550.67 Q1019,550 1019.18,548.71 L1019.82,544.29 Q1020,543 1019.25,542.00 L1017.75,540.00 Q1017,539 1015.70,538.93 Z"/></svg>